<?xml version="1.0" encoding="utf-8"?>
<!-- Generator: Adobe Illustrator 24.0.0, SVG Export Plug-In . SVG Version: 6.00 Build 0)  -->
<svg version="1.1" id="Layer_1" xmlns="http://www.w3.org/2000/svg" xmlns:xlink="http://www.w3.org/1999/xlink" x="0px" y="0px"
	 viewBox="0 0 716 280" style="enable-background:new 0 0 716 280;" xml:space="preserve">
<g>
	<path d="M111.3,245.9H84.2V65.7l-54.5,20V61.2l77.4-29.1h4.2V245.9z"/>
	<path d="M323.9,155.1c0,31.7-5.4,55.2-16.2,70.6c-10.8,15.4-27.7,23.1-50.7,23.1c-22.7,0-39.5-7.5-50.4-22.6
		c-10.9-15-16.6-37.5-16.9-67.4v-36.1c0-31.3,5.4-54.5,16.2-69.7c10.8-15.2,27.8-22.8,50.8-22.8c22.9,0,39.7,7.3,50.5,22
		c10.8,14.7,16.4,37.3,16.7,67.9V155.1z M296.9,118.2c0-22.9-3.2-39.6-9.6-50c-6.4-10.5-16.6-15.7-30.5-15.7
		c-13.8,0-23.9,5.2-30.2,15.6c-6.3,10.4-9.6,26.4-9.8,48.1v43.2c0,23,3.3,40,10,50.9c6.7,11,16.8,16.4,30.3,16.4
		c13.3,0,23.2-5.2,29.7-15.5c6.5-10.3,9.9-26.6,10.2-48.8V118.2z"/>
	<path d="M491.9,155.1c0,31.7-5.4,55.2-16.2,70.6c-10.8,15.4-27.7,23.1-50.7,23.1c-22.7,0-39.5-7.5-50.4-22.6
		c-10.9-15-16.6-37.5-16.9-67.4v-36.1c0-31.3,5.4-54.5,16.2-69.7c10.8-15.2,27.8-22.8,50.8-22.8c22.9,0,39.7,7.3,50.5,22
		c10.8,14.7,16.4,37.3,16.7,67.9V155.1z M464.8,118.2c0-22.9-3.2-39.6-9.6-50c-6.4-10.5-16.6-15.7-30.5-15.7
		c-13.8,0-23.9,5.2-30.2,15.6c-6.3,10.4-9.6,26.4-9.8,48.1v43.2c0,23,3.3,40,10,50.9c6.7,11,16.8,16.4,30.3,16.4
		c13.3,0,23.2-5.2,29.7-15.5c6.5-10.3,9.9-26.6,10.2-48.8V118.2z"/>
	<path d="M606.7,131.8H666v25.6h-59.3v67.2h-27.2v-67.2h-59.3v-25.6h59.3V69.7h27.2V131.8z"/>
</g>
</svg>
