<?xml version="1.0" encoding="utf-8"?>
<!-- Generator: Adobe Illustrator 24.0.0, SVG Export Plug-In . SVG Version: 6.00 Build 0)  -->
<svg version="1.1" id="Layer_1" xmlns="http://www.w3.org/2000/svg" xmlns:xlink="http://www.w3.org/1999/xlink" x="0px" y="0px"
	 viewBox="0 0 512 274" style="enable-background:new 0 0 512 274;" xml:space="preserve">
<style type="text/css">
	.st0{enable-background:new    ;}
</style>
<g class="st0">
	<path d="M125.6,232.3h-24.1V72.8L53.3,90.5V68.8L121.8,43h3.8V232.3z"/>
	<path d="M313.8,152c0,28-4.8,48.9-14.4,62.5c-9.6,13.6-24.5,20.4-44.9,20.4c-20.1,0-35-6.7-44.6-20c-9.7-13.3-14.7-33.2-15-59.7
		v-32c0-27.7,4.8-48.3,14.4-61.7c9.6-13.5,24.6-20.2,45-20.2c20.3,0,35.2,6.5,44.8,19.5c9.6,13,14.5,33,14.7,60.1V152z M289.9,119.2
		c0-20.3-2.8-35-8.5-44.3c-5.7-9.3-14.7-13.9-27-13.9c-12.2,0-21.2,4.6-26.8,13.8c-5.6,9.2-8.5,23.4-8.7,42.6v38.3
		c0,20.4,3,35.4,8.9,45.1c5.9,9.7,14.9,14.6,26.8,14.6c11.8,0,20.6-4.6,26.3-13.7c5.7-9.1,8.7-23.5,9-43.2V119.2z"/>
	<path d="M415.5,131.3H468v22.6h-52.5v59.5h-24.1v-59.5h-52.5v-22.6h52.5v-55h24.1V131.3z"/>
</g>
</svg>
