<?xml version="1.0" encoding="utf-8"?>
<!-- Generator: Adobe Illustrator 24.0.0, SVG Export Plug-In . SVG Version: 6.00 Build 0)  -->
<svg version="1.1" id="Layer_1" xmlns="http://www.w3.org/2000/svg" xmlns:xlink="http://www.w3.org/1999/xlink" x="0px" y="0px"
	 viewBox="0 0 512 313" style="enable-background:new 0 0 512 313;" xml:space="preserve">
<style type="text/css">
	.st0{enable-background:new    ;}
</style>
<g class="st0">
	<path d="M242.6,62.2l-93.2,208.9h-30l92.9-201.5H90.5V46.1h152.1V62.2z"/>
	<path d="M416.1,175.1c0,33.5-5.7,58.4-17.2,74.6c-11.4,16.3-29.3,24.4-53.6,24.4c-24,0-41.8-8-53.3-23.9
		c-11.5-15.9-17.5-39.7-17.9-71.3v-38.2c0-33.1,5.7-57.6,17.2-73.7C302.7,51,320.6,43,345.1,43c24.2,0,42,7.8,53.5,23.3
		c11.4,15.5,17.3,39.4,17.6,71.8V175.1z M387.6,136c0-24.2-3.4-41.9-10.2-52.9c-6.8-11.1-17.6-16.6-32.3-16.6
		c-14.6,0-25.3,5.5-32,16.5c-6.7,11-10.1,28-10.4,50.8v45.7c0,24.3,3.5,42.3,10.6,53.9c7.1,11.6,17.7,17.4,32.1,17.4
		c14.1,0,24.6-5.5,31.4-16.4c6.9-10.9,10.4-28.1,10.7-51.6V136z"/>
</g>
</svg>
