<?xml version="1.0" encoding="utf-8"?>
<!-- Generator: Adobe Illustrator 24.0.0, SVG Export Plug-In . SVG Version: 6.00 Build 0)  -->
<svg version="1.1" id="Layer_1" xmlns="http://www.w3.org/2000/svg" xmlns:xlink="http://www.w3.org/1999/xlink" x="0px" y="0px"
	 viewBox="0 0 512 271" style="enable-background:new 0 0 512 271;" xml:space="preserve">
<style type="text/css">
	.st0{enable-background:new    ;}
</style>
<g class="st0">
	<path d="M140.4,146.3c-5,5.9-10.9,10.6-17.8,14.2c-6.9,3.6-14.4,5.4-22.6,5.4c-10.8,0-20.2-2.6-28.2-8c-8-5.3-14.2-12.8-18.5-22.4
		c-4.4-9.6-6.5-20.2-6.5-31.9c0-12.5,2.4-23.7,7.1-33.7c4.7-10,11.5-17.7,20.2-23c8.7-5.3,18.9-8,30.5-8c18.5,0,33,6.9,43.7,20.7
		c10.6,13.8,16,32.6,16,56.5v6.9c0,36.3-7.2,62.9-21.6,79.6c-14.4,16.7-36,25.3-65,25.7h-4.6v-20.1h5c19.6-0.3,34.6-5.4,45.2-15.3
		C133.7,183.2,139.5,167.6,140.4,146.3z M103.9,146.3c8,0,15.3-2.4,22-7.3c6.7-4.9,11.6-10.9,14.7-18.1v-9.5
		c0-15.6-3.4-28.2-10.1-38c-6.8-9.7-15.3-14.6-25.7-14.6c-10.4,0-18.8,4-25.1,12c-6.3,8-9.5,18.5-9.5,31.6c0,12.7,3.1,23.2,9.2,31.5
		C85.4,142.2,93.6,146.3,103.9,146.3z"/>
	<path d="M314.1,148.7c0,27.8-4.7,48.4-14.2,62c-9.5,13.5-24.3,20.3-44.5,20.3c-19.9,0-34.7-6.6-44.3-19.8
		c-9.6-13.2-14.5-32.9-14.9-59.2v-31.7c0-27.5,4.7-47.8,14.2-61.2c9.5-13.3,24.4-20,44.6-20c20.1,0,34.9,6.4,44.4,19.3
		c9.5,12.9,14.4,32.7,14.6,59.6V148.7z M290.4,116.3c0-20.1-2.8-34.7-8.5-43.9c-5.6-9.2-14.6-13.8-26.8-13.8
		c-12.1,0-21,4.6-26.6,13.7c-5.6,9.2-8.4,23.2-8.6,42.2v38c0,20.2,2.9,35.1,8.8,44.7c5.9,9.6,14.7,14.4,26.6,14.4
		c11.7,0,20.4-4.5,26.1-13.6c5.7-9.1,8.7-23.3,8.9-42.8V116.3z"/>
	<path d="M414.9,128.2H467v22.4h-52.1v59h-23.9v-59H339v-22.4h52.1V73.7h23.9V128.2z"/>
</g>
</svg>
