<?xml version="1.0" encoding="utf-8"?>
<!-- Generator: Adobe Illustrator 24.0.0, SVG Export Plug-In . SVG Version: 6.00 Build 0)  -->
<svg version="1.1" id="Layer_1" xmlns="http://www.w3.org/2000/svg" xmlns:xlink="http://www.w3.org/1999/xlink" x="0px" y="0px"
	 viewBox="0 0 768 768" style="enable-background:new 0 0 768 768;" xml:space="preserve">
<style type="text/css">
	.st0{fill:#FFFFFF;}
	.st1{fill:#D82C28;}
</style>
<g>
	<path class="st0" d="M767.6,383.6c0-212.1-171.9-384-384-384s-384,171.9-384,384c0,191.7,140.4,350.5,324,379.3V494.6h-97.5v-111
		h97.5V299c0-96.2,57.3-149.4,145-149.4c42,0,86,7.5,86,7.5v94.5h-48.4c-47.7,0-62.6,29.6-62.6,60v72h106.5l-17,111h-89.5V763
		C627.2,734.1,767.6,575.3,767.6,383.6z"/>
	<path class="st1" d="M533.1,494.6l17-111H443.6v-72c0-30.4,14.9-60,62.6-60h48.4v-94.5c0,0-43.9-7.5-86-7.5
		c-87.7,0-145,53.2-145,149.4v84.6h-97.5v111h97.5V763c19.5,3.1,39.6,4.7,60,4.7c20.4,0,40.4-1.6,60-4.7V494.6H533.1z"/>
</g>
</svg>
